# xmcd
#
# Track frame offsets: 
#        182
#        18375
#        33190
#        47887
#        65577
#        90380
#        115010
#        141562
#        158380
#        177850
#        204377
#
# Disc length: 3065 seconds
#
# Revision: 10
# Processed by: cddbd v1.5.2PL0 Copyright (c) Steve Scherf et al.
# Submitted via: ExactAudioCopy v0.99pb3
#
DISCID=890bf70b
DTITLE=Lucinda Williams - Essence
DYEAR=2001
DGENRE=Alt-Country
TTITLE0=Lonely Girls
TTITLE1=Steal Your Love
TTITLE2=I Envy The Wind
TTITLE3=Blue
TTITLE4=Out Of Touch
TTITLE5=Are You Down
TTITLE6=Essence
TTITLE7=Reason To Cry
TTITLE8=Get Right With God
TTITLE9=Bus To Baton Rouge
TTITLE10=Broken Butterflies
EXTD=
EXTT0=
EXTT1=
EXTT2=
EXTT3=
EXTT4=
EXTT5=
EXTT6=
EXTT7=
EXTT8=
EXTT9=
EXTT10=
PLAYORDER=
